<?xml version="1.0" encoding="utf-8"?><svg xmlns="http://www.w3.org/2000/svg" xmlns:xlink="http://www.w3.org/1999/xlink" width="1920" height="947" preserveAspectRatio="xMidYMid" viewBox="0 0 1920 947" style="z-index:1;margin-right:-2px;display:block;background-repeat-y:initial;background-repeat-x:initial;background-color:rgb(255, 255, 255);animation-play-state:paused" ><g transform="translate(960,473.5) scale(1,1) translate(-960,-473.5)" style="transform:matrix(1, 0, 0, 1, 0, 0);animation-play-state:paused" ><linearGradient id="lg-0.8894258316813508" x1="0" x2="1" y1="0" y2="0" style="animation-play-state:paused" ><stop stop-color="#ff00ff" offset="0" style="animation-play-state:paused" ></stop>

  
<stop stop-color="#00ffff" offset="1" style="animation-play-state:paused" ></stop></linearGradient>
<path d="M 0 0 L 0 842.828 Q 192 813.062 384 790.572 T 768 660.023 T 1152 626.142 T 1536 408.338 T 1920 340.815 L 1920 0 Z" fill="url(#lg-0.8894258316813508)" opacity="0.4" style="opacity:0.4;animation-play-state:paused" ></path>
<path d="M 0 0 L 0 851.666 Q 192 800.684 384 760.906 T 768 643.849 T 1152 569.089 T 1536 546.247 T 1920 489.133 L 1920 0 Z" fill="url(#lg-0.8894258316813508)" opacity="0.4" style="opacity:0.4;animation-play-state:paused" ></path>
<path d="M 0 0 L 0 936.345 Q 192 833.273 384 809.861 T 768 691.215 T 1152 662.958 T 1536 458.821 T 1920 379.768 L 1920 0 Z" fill="url(#lg-0.8894258316813508)" opacity="0.4" style="opacity:0.4;animation-play-state:paused" ></path>
<path d="M 0 0 L 0 872.12 Q 192 802.076 384 780.17 T 768 714.365 T 1152 592.681 T 1536 523.806 T 1920 360.388 L 1920 0 Z" fill="url(#lg-0.8894258316813508)" opacity="0.4" style="opacity:0.4;animation-play-state:paused" ></path>
<path d="M 0 0 L 0 901.019 Q 192 849.91 384 801.739 T 768 707.275 T 1152 547.028 T 1536 475.866 T 1920 405.795 L 1920 0 Z" fill="url(#lg-0.8894258316813508)" opacity="0.4" style="opacity:0.4;animation-play-state:paused" ></path></g></svg>