<?xml version="1.0" encoding="utf-8"?><svg xmlns="http://www.w3.org/2000/svg" xmlns:xlink="http://www.w3.org/1999/xlink" width="1946" height="989" preserveAspectRatio="xMidYMid" viewBox="0 0 1946 989" style="z-index:1;margin-right:-2px;display:block;background-repeat-y:initial;background-repeat-x:initial;animation-play-state:paused" ><g transform="translate(973,494.5) scale(1,1) translate(-973,-494.5)" style="transform:matrix(1, 0, 0, 1, 0, 0);animation-play-state:paused" ><linearGradient id="lg-0.7953482997385244" x1="0" x2="1" y1="0" y2="0" style="animation-play-state:paused" ><stop stop-color="#00fff5" offset="0" style="animation-play-state:paused" ></stop>

  
<stop stop-color="#aafbfb" offset="1" style="animation-play-state:paused" ></stop></linearGradient>
<path d="M 0 0 L 0 756.582 Q 162.167 739.219 324.333 722.423 T 648.667 714.664 T 973 677.946 T 1297.33 648.147 T 1621.67 610.33 T 1946 606.019 L 1946 0 Z" fill="url(#lg-0.7953482997385244)" opacity="0.4" style="opacity:0.4;animation-play-state:paused" ></path>
<path d="M 0 0 L 0 763.466 Q 162.167 776.065 324.333 732.173 T 648.667 721.046 T 973 685.454 T 1297.33 649.007 T 1621.67 623.52 T 1946 615.659 L 1946 0 Z" fill="url(#lg-0.7953482997385244)" opacity="0.4" style="opacity:0.4;animation-play-state:paused" ></path>
<path d="M 0 0 L 0 756.027 Q 162.167 763.457 324.333 732.319 T 648.667 698.637 T 973 676.279 T 1297.33 631.285 T 1621.67 612.634 T 1946 566.783 L 1946 0 Z" fill="url(#lg-0.7953482997385244)" opacity="0.4" style="opacity:0.4;animation-play-state:paused" ></path></g></svg>