<?xml version="1.0" encoding="utf-8"?><svg xmlns="http://www.w3.org/2000/svg" xmlns:xlink="http://www.w3.org/1999/xlink" width="1280" height="1528" preserveAspectRatio="xMidYMid" viewBox="0 0 1280 1528" style="z-index:1;margin-right:-2px;display:block;background-repeat-y:initial;background-repeat-x:initial;background-color:rgb(255, 255, 255);animation-play-state:paused" ><g transform="translate(640,764) scale(1,-1) translate(-640,-764)" style="transform:matrix(1, 0, 0, -1, 0, 1528);animation-play-state:paused" ><linearGradient id="lg-0.5164402883316734" x1="0" x2="1" y1="0" y2="0" style="animation-play-state:paused" ><stop stop-color="#ff00ff" offset="0" style="animation-play-state:paused" ></stop>

  
<stop stop-color="#00ffff" offset="1" style="animation-play-state:paused" ></stop></linearGradient>
<path d="M 0 0 L 0 932.725 Q 320 993.232 640 959.557 T 1280 1033.18 L 1280 0 Z" fill="url(#lg-0.5164402883316734)" opacity="0.4" style="opacity:0.4;animation-play-state:paused" ></path>
<path d="M 0 0 L 0 1057.95 Q 320 1084.57 640 1052.73 T 1280 1079.38 L 1280 0 Z" fill="url(#lg-0.5164402883316734)" opacity="0.4" style="opacity:0.4;animation-play-state:paused" ></path>
<path d="M 0 0 L 0 1002.52 Q 320 998.058 640 977.652 T 1280 989.919 L 1280 0 Z" fill="url(#lg-0.5164402883316734)" opacity="0.4" style="opacity:0.4;animation-play-state:paused" ></path>
<path d="M 0 0 L 0 1105.67 Q 320 1101.51 640 1075.08 T 1280 1143.6 L 1280 0 Z" fill="url(#lg-0.5164402883316734)" opacity="0.4" style="opacity:0.4;animation-play-state:paused" ></path>
<path d="M 0 0 L 0 994.999 Q 320 912.476 640 889.705 T 1280 938.36 L 1280 0 Z" fill="url(#lg-0.5164402883316734)" opacity="0.4" style="opacity:0.4;animation-play-state:paused" ></path></g></svg>